<svg xmlns="http://www.w3.org/2000/svg" width="700" height="420" viewBox="0 0 700 420">
<style>text{font-family:Arial,sans-serif;fill:#222}.title{font-size:20px;font-weight:bold}.axis{font-size:12px}.label{font-size:13px}.value{font-size:12px;font-weight:bold}</style>
<text class="title" x="350.0" y="28" text-anchor="middle">Distribuição por Target</text>
<line x1="70" y1="350" x2="680" y2="350" stroke="#333"/>
<line x1="70" y1="40" x2="70" y2="350" stroke="#333"/>
<line x1="65" y1="350.0" x2="70" y2="350.0" stroke="#333"/>
<text class="axis" x="60" y="354.0" text-anchor="end">0</text>
<line x1="65" y1="307.8" x2="70" y2="307.8" stroke="#333"/>
<text class="axis" x="60" y="311.8" text-anchor="end">50</text>
<line x1="65" y1="265.5" x2="70" y2="265.5" stroke="#333"/>
<text class="axis" x="60" y="269.5" text-anchor="end">100</text>
<line x1="65" y1="223.3" x2="70" y2="223.3" stroke="#333"/>
<text class="axis" x="60" y="227.3" text-anchor="end">150</text>
<line x1="65" y1="181.1" x2="70" y2="181.1" stroke="#333"/>
<text class="axis" x="60" y="185.1" text-anchor="end">200</text>
<line x1="65" y1="138.8" x2="70" y2="138.8" stroke="#333"/>
<text class="axis" x="60" y="142.8" text-anchor="end">250</text>
<line x1="65" y1="96.6" x2="70" y2="96.6" stroke="#333"/>
<text class="axis" x="60" y="100.6" text-anchor="end">300</text>
<line x1="65" y1="54.4" x2="70" y2="54.4" stroke="#333"/>
<text class="axis" x="60" y="58.4" text-anchor="end">350</text>
<rect x="157.4" y="75.5" width="109.3" height="274.5" fill="#F44336"/>
<text class="value" x="212.0" y="67.5" text-anchor="middle">325</text>
<text class="label" x="212.0" y="370" text-anchor="middle">High</text>
<rect x="354.1" y="40.0" width="109.3" height="310.0" fill="#4CAF50"/>
<text class="value" x="408.7" y="32.0" text-anchor="middle">367</text>
<text class="label" x="408.7" y="370" text-anchor="middle">Low</text>
<rect x="550.7" y="89.8" width="109.3" height="260.2" fill="#FFC107"/>
<text class="value" x="605.4" y="81.8" text-anchor="middle">308</text>
<text class="label" x="605.4" y="370" text-anchor="middle">Moderate</text>
<text class="axis" x="20" y="210.0" transform="rotate(-90 20,210.0)">Contagem</text>
</svg>